# xmcd
#
# Track frame offsets:
#  150
#  14585
#  31135
#  49590
#  64880
#  81130
#  98510
#  112180
#  125185
#
# Disc length: 1905 seconds
#
# Revision: 0
# Processed by: cddbd v1.5.1PL0 Copyright (c) Steve Scherf et al.
# Submitted via: AltoMP3_Maker 3.0
#
DISCID=75076f09
DTITLE=Stacey Collins - Don't Do Me Like That
DYEAR=1900
DGENRE=
TTITLE0=If You Want This "Don't Do Me Like That"
TTITLE1=My Heart Can't Take the Beating Anymore
TTITLE2=Driving Under the Influence of Love
TTITLE3=My Heart's On Hold
TTITLE4=Her Memory Means More to You Than Me
TTITLE5=One Night Stand
TTITLE6=All Work and No Play
TTITLE7=I Remember I Forgot to Forget You
TTITLE8=I'm the One in Lonely
EXTD=
EXTT0=
EXTT1=
EXTT2=
EXTT3=
EXTT4=
EXTT5=
EXTT6=
EXTT7=
EXTT8=
PLAYORDER=
